<?xml version="1.0" encoding="utf-8"?>
<!-- Generator: Adobe Illustrator 27.0.0, SVG Export Plug-In . SVG Version: 6.00 Build 0)  -->
<svg version="1.1" id="Layer_1" xmlns="http://www.w3.org/2000/svg" xmlns:xlink="http://www.w3.org/1999/xlink" x="0px" y="0px"
	 viewBox="0 0 128 128" style="enable-background:new 0 0 128 128;" xml:space="preserve">
<style type="text/css">
	.st0{fill-rule:evenodd;clip-rule:evenodd;fill:#FFFFFF;}
	.st1{fill:#EF4444;}
	.st2{fill-rule:evenodd;clip-rule:evenodd;fill:#374151;}
</style>
<path class="st0" d="M118,31.9c-1-7.6-3-12.2-6.4-15.6c-3.4-3.4-8-5.3-15.6-6.4c-7.7-1-17.9-1-32.1-1s-24.3,0-32.1,1
	c-7.6,1-12.2,3-15.6,6.4c-3.4,3.4-5.3,8-6.4,15.6c-1,7.7-1.1,17.9-1.1,32.1v5l6-5.2c5.4-4.7,13.6-4.5,18.7,0.6L59.1,90
	c4.1,4.1,10.5,4.7,15.3,1.3l1.8-1.2c6.8-4.8,16-4.2,22.2,1.3l16.8,15.2c1.7-3.6,2.7-8.2,3.2-14.8c0.6-7.2,0.6-16.1,0.6-27.7
	C119.1,49.8,119.1,39.7,118,31.9z M87.8,52.1c-6.6,0-11.9-5.3-11.9-11.9c0-6.6,5.3-11.9,11.9-11.9c6.6,0,11.9,5.3,11.9,11.9
	C99.7,46.8,94.4,52.1,87.8,52.1z"/>
<path class="st1" d="M103.8,40.2c0,8.8-7.2,16-16,16c-8.8,0-16-7.2-16-16c0-8.8,7.2-16,16-16C96.7,24.2,103.8,31.3,103.8,40.2z"/>
<path class="st2" d="M126.9,30.7c-1.2-8.6-3.6-15.4-8.9-20.7c-5.3-5.3-12.1-7.7-20.7-8.9C88.9,0,78.1,0,64.3,0h-0.7
	C49.9,0,39.1,0,30.7,1.1C22.1,2.3,15.4,4.7,10,10c-5.3,5.3-7.7,12.1-8.9,20.7C0,39.1,0,49.9,0,63.7V64c0,3.1,0,6.1,0,8.9
	c0,11.1,0.3,20,1.6,27.1c1.3,7.3,3.7,13.2,8.5,17.9c5.3,5.3,12.1,7.7,20.7,8.9c8.4,1.1,19.2,1.1,32.9,1.1h0.7
	c13.8,0,24.5,0,32.9-1.1c8.6-1.2,15.4-3.6,20.7-8.9c1.9-1.9,3.4-4,4.7-6.3c2.8-5.3,4.1-11.6,4.7-19.3c0.6-7.6,0.6-16.9,0.6-28.2
	v-0.5C128,49.9,128,39.1,126.9,30.7z M118.5,91.7c-0.5,6.6-1.5,11.3-3.2,14.8L98.4,91.4C92.2,85.8,83,85.2,76.2,90l-1.8,1.2
	c-4.7,3.3-11.2,2.8-15.3-1.3L33.6,64.4c-5.1-5.1-13.3-5.4-18.7-0.6l-6,5.2v-5c0-14.2,0-24.3,1.1-32.1c1-7.6,3-12.2,6.4-15.6
	c3.4-3.4,8-5.3,15.6-6.4c7.7-1,17.9-1,32.1-1s24.3,0,32.1,1c7.6,1,12.2,3,15.6,6.4c3.4,3.4,5.3,8,6.4,15.6c1,7.7,1,17.9,1,32.1
	C119.1,75.6,119.1,84.5,118.5,91.7z"/>
</svg>
